<?xml version="1.0" encoding="UTF-8"?>
<!DOCTYPE svg PUBLIC "-//W3C//DTD SVG 1.1//EN" "http://www.w3.org/Graphics/SVG/1.1/DTD/svg11.dtd">
<!-- Creator: CorelDRAW 2021 (64-Bit) -->
<svg xmlns="http://www.w3.org/2000/svg" xml:space="preserve" width="118.238mm" height="114.793mm" version="1.1" style="shape-rendering:geometricPrecision; text-rendering:geometricPrecision; image-rendering:optimizeQuality; fill-rule:evenodd; clip-rule:evenodd"
viewBox="0 0 2580.97 2505.76"
 xmlns:xlink="http://www.w3.org/1999/xlink"
 xmlns:xodm="http://www.corel.com/coreldraw/odm/2003">
 <defs>
  <style type="text/css">
   <![CDATA[
    .fil17 {fill:#FEFEFE;fill-rule:nonzero}
    .fil9 {fill:#F7B646;fill-rule:nonzero}
    .fil14 {fill:#F3A79A;fill-rule:nonzero}
    .fil8 {fill:#FEF8BC;fill-rule:nonzero}
    .fil13 {fill:#F9D883;fill-rule:nonzero}
    .fil16 {fill:#F2B6B4;fill-rule:nonzero}
    .fil19 {fill:#F09B6D;fill-rule:nonzero}
    .fil15 {fill:#EB7E77;fill-rule:nonzero}
    .fil23 {fill:#F8EEE2;fill-rule:nonzero}
    .fil0 {fill:#F1F8F4;fill-rule:nonzero}
    .fil22 {fill:#D6522A;fill-rule:nonzero}
    .fil4 {fill:#DEEFEA;fill-rule:nonzero}
    .fil6 {fill:#D89A3B;fill-rule:nonzero}
    .fil20 {fill:#D1D1CF;fill-rule:nonzero}
    .fil5 {fill:#B7DED0;fill-rule:nonzero}
    .fil11 {fill:#A2D19B;fill-rule:nonzero}
    .fil3 {fill:#61B96D;fill-rule:nonzero}
    .fil1 {fill:#5EA661;fill-rule:nonzero}
    .fil18 {fill:#242222;fill-rule:nonzero}
    .fil7 {fill:#272626;fill-rule:nonzero}
    .fil2 {fill:#3A8A49;fill-rule:nonzero}
    .fil10 {fill:#49346E;fill-rule:nonzero}
    .fil12 {fill:#0D6064;fill-rule:nonzero}
    .fil21 {fill:#174F52;fill-rule:nonzero}
   ]]>
  </style>
 </defs>
 <g id="Layer_x0020_1">
  <metadata id="CorelCorpID_0Corel-Layer"/>
  <g>
   <path class="fil0" d="M1350.43 2040.61l-0.05 0 -3.91 -0.02 -0.17 -0 -3.12 -0.03 -0.66 -0.01 -0.3 -0 -0.36 -0.01 -0.66 -0.01 -1.98 -0.04 -0.66 -0.01 -0.43 -0.01 -0.23 -0.01 -0.15 -0 -3.14 -0.08 -0.56 -0.02 -0.1 -0 -0.23 -0.01 -0.64 -0.02c2.39,0.07 4.78,0.12 7.18,0.17l32.92 -649.76c36.12,3.36 71.3,5.4 103.48,5.4 41.56,0 78.09,-3.41 105.07,-11.79l0.46 0.39 0.52 -0.71c1.81,-0.58 3.58,-1.18 5.31,-1.8 -65.52,158.39 -100.84,393.07 -117.87,644.86l-2.28 0.56 -0.26 0.06c-32.9,7.96 -66.89,11.84 -100.89,12.7l-0.03 0c-5.42,0.14 -10.85,0.2 -16.27,0.19zm-20.25 -0.37l-0.16 -0.01 -0.02 0 -0.25 -0.01 0.96 0.03 -0.52 -0.02zm-3.44 -0.13l-0.66 -0.03 -0.15 -0 0.81 0.03zm-1.31 -0.05l-0.66 -0.03 -0.28 -0.01 0.48 0.02 0.48 0.02 -0.02 0zm-4.59 -0.21l-1.96 -0.1 0.36 0.02 0.48 0.02 0.95 0.05 0.17 0.01zm-1.97 -0.1l-0.65 -0.03 0.07 0 0.48 0.03 0.11 0zm-4.58 -0.25l-0.53 -0.03 0.24 0.01 0.29 0.02zm-0.53 -0.03l-0.13 -0.01 -0.11 -0.01 -0.48 -0.03 -0.06 -0 -0.65 -0.04 -0.24 -0.02 0.48 0.03 0.41 0.02 0.65 0.04 0.13 0.01zm-1.43 -0.09l-1.31 -0.08 0.6 0.04 0.48 0.03 0.24 0.02zm-1.31 -0.08l-0.65 -0.04 0.3 0.02 0.36 0.02zm-0.65 -0.04l-0.65 -0.04 0.48 0.03 0.18 0.01zm4.11 0.25l0.48 0.03 -0 0 -0.47 -0.03zm0.95 0.05l0.48 0.03 0.35 0.02 0.13 0.01 -0.48 -0.03 -0.3 -0.02 -0.17 -0.01zm1.43 0.08l0.48 0.03 0.23 0.01 0.25 0.01 0 0 0.47 0.02 -1.43 -0.08zm0.48 0.03l0.48 0.03 -0.48 -0.03zm3.34 0.17l0.48 0.02 0.34 0.02 0.13 0 -0.48 -0.02 -0.31 -0.02 -0.17 -0.01zm1.43 0.07l0.48 0.02 -0.43 -0.02 -0.05 -0zm0.95 0.04l0.48 0.02 -0.07 -0 -0.4 -0.02zm0.48 0.02l0.48 0.02 0.48 0.02 -0.38 -0.02 -0.58 -0.03zm3.34 0.14l0.48 0.02 0.04 0 0.44 0.02 -0.48 -0.02 -0.48 -0.02zm2.39 0.09l0.48 0.02 -0.38 -0.01 -0.1 -0.01zm-899.15 -64.66c1.22,0.46 2.43,0.9 3.66,1.34 -1.22,-0.44 -2.44,-0.89 -3.66,-1.34zm4 1.47c1.16,0.42 2.32,0.82 3.48,1.22 -1.16,-0.4 -2.32,-0.81 -3.48,-1.22zm4.02 1.41c1.25,0.43 2.5,0.84 3.76,1.25 -1.25,-0.41 -2.51,-0.83 -3.76,-1.25zm8.1 2.63c1.05,0.32 2.1,0.64 3.15,0.95l0.8 0.24 3.27 0.93 0.75 0.21c1.17,0.32 2.34,0.64 3.52,0.95l0.32 0.08c1.17,0.31 2.34,0.61 3.52,0.9l0.7 0.17 3.11 0.75 1.1 0.26 2.92 0.66 1.2 0.26c0.95,0.21 1.9,0.41 2.85,0.6l1.18 0.24 3.05 0.6 1.02 0.2 3.01 0.56 1.2 0.21 2.7 0.47 1.66 0.28 2.08 0.33 0.09 0.02 1.8 0.28 0.19 0.03 2.08 0.31 0.07 0.01 2.02 0.29 2.09 0.29 0.21 0.03 1.74 0.22 0.14 0.02 2.09 0.26 0.06 0.01 1.8 0.22 0.24 0.03 2.1 0.24 0.04 0 2.03 0.22 0.03 0 2.1 0.22 2.1 0.21 2.1 0.2 2.11 0.18 2.11 0.17 2.11 0.16 2.11 0.15c11.97,0.84 24,1.2 36.07,1.2 29.14,0 58.46,-2.09 87.39,-4.51 -10.57,0.89 -21.18,1.73 -31.82,2.43l-43.09 -850.5 -31.31 0 0 -68.07 876.88 0 0 68.07 -31.32 0 -6.08 119.94 59.3 -1.29 -0.97 -0.83c0,0 16.31,-0.09 27.78,-0.96 5.55,-0.42 10.2,-4.32 11.47,-9.74 17.41,-73.43 44.82,-214.34 85.42,-318.78l-0.04 -0.05 -1.87 -2.2 -0.58 -0.68 -1.71 -1.98 -0.96 -1.11 -1.72 -1.97 -0.52 -0.6 -1.95 -2.22 -0.74 -0.83 -1.82 -2.06 -0.14 -0.15 -2.31 -2.58 -2.44 -2.7 -2.34 -2.57 -0.14 -0.16 -2.21 -2.41 -0.36 -0.39 -1.97 -2.12 -0.81 -0.87 -1.83 -1.95 -0.51 -0.55 -2.19 -2.31 -2.36 -2.48 -0.15 -0.15 -2.52 -2.62 -0.26 -0.27 -2.27 -2.34 -2.31 -2.36 -0.39 -0.39 -2.15 -2.18 -0.54 -0.55 -2.11 -2.12 -0.49 -0.49 -2.26 -2.25 -2.34 -2.31 -0.25 -0.24 -2.6 -2.54 -0.17 -0.17 -2.44 -2.36 -2.37 -2.28 -0.41 -0.39 -1.9 -1.81 -1 -0.95c-1.62,-1.53 -3.25,-3.06 -4.88,-4.59l-2.31 -2.15 -0.36 -0.33 -2.68 -2.46 -0.07 -0.07 -2.62 -2.39c-1.64,-1.5 -3.29,-2.98 -4.95,-4.46l-0.94 -0.84 -1.85 -1.65 -0.72 -0.64c-1.7,-1.51 -3.42,-3.02 -5.13,-4.52l-2.72 -2.37 -0.03 -0.02 -2.75 -2.38 -0.41 -0.36 -2.35 -2.01 -0.86 -0.73 -1.91 -1.62 -0.34 -0.29 -2.15 -1.81 -0.29 -0.25 -1.76 -1.48 -1.03 -0.86 -0.92 -0.76 -1.87 -1.55 -0.01 -0.01 -2.67 -2.2 -0.14 -0.11 -2.82 -2.31 -0.32 -0.26 -2.51 -2.04 -0.77 -0.62 -2.06 -1.66 -0.51 -0.41 -1.95 -1.56 -0.78 -0.62 -1.95 -1.55 -0.5 -0.4 -2.15 -1.7 -0.71 -0.55 -0.27 -0.21 -2.6 -2.03 -2.87 -2.23 -2.52 -1.94 -0.36 -0.28 -0.68 -0.52 -0.95 -0.72 -2.11 -1.61 -0.8 -0.61 -2.12 -1.6 -0.75 -0.57 -1.29 -0.97 -0.66 -0.49 -2.16 -1.62 -0.09 -0.07 -2.56 -1.9 -0.36 -0.27 -2.93 -2.16 -0.11 -0.08 -2.82 -2.07 -1.98 -1.44 -0.96 -0.7 -1.06 -0.76 -1.89 -1.36 -1.53 -1.1 -0.53 -0.38 -2.08 -1.48 -0.82 -0.59 -0.95 -0.67 -2.49 -1.76 -0.48 -0.34 -2.97 -2.09c-76.41,-53.61 -161.41,-99.47 -255.1,-112.18 -20.89,-2.83 -41.91,-4.13 -62.93,-4.13 -73.77,0 -147.76,16.19 -217.03,40.46 -15.51,5.42 -30.83,11.5 -45.96,17.86 -77.81,26.23 -151.13,65.28 -216.9,114.41 -68.19,51.09 -127.69,112.75 -176.64,182.43 -50.81,72.12 -90.14,152.07 -118.44,235.58 -28.4,83.97 -45.59,171.69 -52.31,260.05 -3.46,45.5 -4.2,91.16 -1.86,136.66 2.53,48.95 9.24,98.08 24.65,144.79 26.25,79.22 79.68,150.11 158.99,181.4l20.11 7.04zm870.61 58.6l0.05 0 0.43 0.02 -0.48 -0.03zm9.89 0.46l0.14 0 -0.14 -0zm402.68 -742.67c-1.91,-10.04 -3.96,-20.05 -6.17,-30.03l-0.02 -0.06c-1.26,-5.68 -2.56,-11.35 -3.92,-17l-0.11 -0.45c-1.05,-4.35 -2.12,-8.7 -3.23,-13.03l-0.17 -0.68c-1.42,-5.56 -2.89,-11.1 -4.42,-16.63l-0.08 -0.29 -0.78 -2.81 -0.34 -1.21 -0.05 -0.19 -0.4 -1.4 -0.77 -2.71 -0.03 -0.1 -1.21 -4.2 -1.08 -3.69 -0.3 -1.01 -0.83 -2.79 -0.24 -0.8 -0.11 -0.37c-1.16,-3.84 -2.34,-7.67 -3.55,-11.49l-0.17 -0.52 -0.05 -0.16c-3.88,-12.19 -8.03,-24.28 -12.46,-36.27l-0.12 -0.31c-2.99,-8.08 -6.12,-16.12 -9.37,-24.09l-0.01 -0.03c-4.34,-10.63 -8.91,-21.17 -13.71,-31.59l-0.02 -0.03c-4.79,-10.39 -9.81,-20.67 -15.07,-30.82l-0.07 -0.14c-1.96,-3.79 -3.96,-7.55 -5.99,-11.31l-0.03 -0.06c-3.79,-7.01 -7.7,-13.95 -11.73,-20.83 -10.82,34.03 -17.9,58.04 -17.9,58.04 -0.78,3.46 -0.67,18.73 -0.59,40.76 14.21,81.44 17.22,135.91 15.23,172.26 24.75,-3.34 48.08,-4.66 70.64,-4.66 9.86,0 19.58,0.26 29.21,0.69zm-1283.17 683.61l-0.82 -0.26 -3.26 -1.03 -0.23 -0.07 -0.05 -0.02 4.35 1.38zm-8.1 -2.63l-0.17 -0.06 -0.37 -0.13 0.54 0.19zm-4.02 -1.41l-0.11 -0.04 -0.23 -0.09 0.34 0.12zm-4 -1.47l-0.05 -0.02 0.05 0.02z"/>
  </g>
  <path class="fil1" d="M1385.73 1143.26l-814.25 0 43.09 850.5c25.67,-1.71 51.19,-4.17 76.2,-6.21 103.03,-8.22 206.25,-4.77 308.82,7.38 52.96,6.26 105.37,15.05 157.86,24.1 50.43,8.6 101.16,16.9 152.26,20.18 10.15,0.65 20.35,1.09 30.57,1.28l45.46 -897.24z"/>
  <polygon class="fil1" points="540.17,1143.26 1417.05,1143.26 1417.05,1075.18 540.17,1075.18 "/>
  <polygon class="fil1" points="540.17,1143.26 1417.05,1143.26 1417.05,1075.18 540.17,1075.18 "/>
  <polygon class="fil2" points="576.64,1245.11 571.49,1143.27 1385.73,1143.27 "/>
  <path class="fil3" d="M846.16 270.44l0.07 -0.03 0.08 -0.03 0.08 -0.03 1.22 -0.43c27.44,-9.27 58.01,3.58 70.27,30.48 1.87,5.07 3.37,10.15 4.51,15.22 18.66,80.92 -48.56,152.74 -48.61,152.79l-0 0c-89.02,-8.53 -127.82,-50.8 -141.32,-70.55l-0.81 -1.19c-1.26,-1.8 -2.46,-3.69 -3.46,-5.66l-0.72 -1.33c-0.65,-1.32 -0.99,-2.04 -0.99,-2.04 -13.08,-28.71 -0.38,-62.67 28.32,-75.74 18.34,-8.36 38.75,-6.21 54.53,3.87 2.74,-18.52 14.51,-35.34 32.84,-43.7 1.33,-0.6 2.67,-1.15 4.01,-1.65z"/>
  <path class="fil4" d="M1294.87 753.94l-35.71 67.56 -36.94 70.7 -65.54 125.54c-12.3,23.6 -36.1,37.37 -60.96,37.71l-0.42 -0.01c-11.7,0.39 -23.64,-2.19 -34.68,-8.09l-99.18 -52.43 -99.43 -51.94c-11.04,-5.7 -19.91,-13.94 -26.18,-23.68 -1.14,-1.66 -2.15,-3.34 -3.04,-5.08 -11.41,-20.04 -12.57,-45.34 -0.98,-67.2l66.29 -125.14 29.71 -56.14 42.85 -82.16 53.68 -102.97 12.51 -23.81c17,-32.54 43.59,-58.87 75.93,-75.44 7.77,-4.14 15.83,-7.41 24.27,-10.24l1.05 -0.39c15.77,-5.33 30.43,-12.72 43.93,-21.97 23.32,-16.25 42.77,-38 56.15,-63.68l118.74 -227.58 1.69 -3.23c-5.61,-3.79 -9.46,-9.3 -11.47,-15.52 -2.21,-7.06 -1.66,-15.12 2.07,-22.23 6.88,-13.27 22.7,-19.09 36.3,-13.85l2.56 1.14c1.66,0.46 3.32,1.12 4.89,1.93l69 36.58 69.27 36.08c1.57,0.83 3.04,1.82 4.36,2.93l2.4 1.26c11.95,8.39 16.22,24.77 9.19,37.95 -3.74,7.12 -10.16,12.09 -17.22,14.28 -6.18,1.93 -12.9,1.86 -19.2,-0.6l-1.69 3.23 -120.07 226.89c-13.55,25.59 -20.52,53.9 -20.58,82.35 -0.04,16.34 2.26,32.63 6.83,48.65l0.27 1.09c2.46,8.58 4.34,17.05 5.33,25.8 4.7,36.02 -1.96,72.83 -19.13,105.28l-12.51 23.82 -54.34 102.61z"/>
  <path class="fil5" d="M1502.9 136.12c-11.45,8.54 -24.62,15.13 -38.99,16.97 -15.42,2.03 -30.45,-2.7 -43.36,-11.07 -23.17,-15.13 -46.13,-40.71 -46.09,-69.91 0.02,-0.83 0.28,-1.53 0.59,-2.11 -0.36,-3.36 4.23,-6.85 7.98,-4.15 36.97,26.61 78.18,47.2 121.6,61.16 5.61,1.78 3.8,10.44 -1.73,9.12z"/>
  <path class="fil5" d="M1103.08 430.73c15.26,-25.22 45.56,-30.09 70.6,-40.77 13.54,-5.88 26.18,-13.68 37.61,-22.98 2.56,-2.46 5.07,-5.04 7.55,-7.75 12.52,-13.78 22.49,-29.34 32.04,-45.31 9.08,-15.07 17.73,-32.16 30.31,-44.64 8.49,-8.53 20.57,-13.04 31.33,-5.6 11.57,8.09 15.48,23.76 17.55,36.87 4.26,27.03 -1.69,54.83 -13.12,79.42 -13.2,28.53 -34.49,52.58 -57.89,73.2 -12.25,10.87 -25.16,20.98 -38.26,30.86 -11.29,8.42 -22.66,17.01 -35.36,23.32 -23.9,11.92 -51.57,12.99 -72.33,-5.93 -19.65,-17.83 -23.85,-47.99 -10.03,-70.7z"/>
  <path class="fil5" d="M1101.32 1034.75c-4.27,0.29 -8.89,-1.17 -13.36,-2.9 -0.79,-0.31 -1.58,-0.61 -2.32,-1 -2.69,-1.1 -5.22,-2.33 -7.53,-3.34 -18.14,-8.05 -34.41,-19.44 -51.43,-29.65 -17.59,-10.51 -35.69,-20.23 -54.15,-29.08 -18.21,-8.73 -36.82,-16.5 -55.65,-23.44 -18.29,-6.76 -37.18,-12.57 -53.55,-23.38 -5.69,-3.84 -12.58,-8.41 -14.99,-15.26 -2.13,-6.18 0.75,-12.27 6.28,-15.58 13.75,-8.3 32.7,-5.61 47.75,-3.72 70.57,8.69 137.99,42.85 187.09,94.19 5.97,6.31 11.91,12.69 17.16,19.57 3.83,4.97 7.33,11.13 7,17.61 -0.19,2.96 -1.25,5.57 -2.84,7.79 -1.18,4.45 -4.38,7.93 -9.48,8.2z"/>
  <path class="fil5" d="M1316.9 185.26c3.33,-13.97 10.27,-26.79 24.52,-32.8 7.67,-3.15 17.53,-3.66 24.19,1.96 6.61,5.68 8.26,15.2 8.55,23.48 0.68,18.19 -5.98,37.49 -22.33,47.14 -7.36,4.37 -16.73,6.74 -25.16,4.09 -7.61,-2.41 -12.94,-8.9 -14.7,-16.59 -2.43,-10.25 0.37,-19 4.93,-27.27z"/>
  <path class="fil1" d="M1251.81 693.3c-25.43,9.4 -42.88,30.79 -48.39,55.39 -20.18,-15.11 -47.36,-20.01 -72.79,-10.61 -39.79,14.72 -60.19,59.03 -45.49,98.83 0,0 0.38,1.02 1.13,2.85l0.83 1.85c1.15,2.76 2.57,5.41 4.09,7.95l0.98 1.66c16.15,27.85 64.04,88.4 182.67,108.66 0,0 97.39,-89.77 80.33,-200.24 -1.03,-6.92 -2.53,-13.89 -4.53,-20.87 -11.47,-31.03 -40.89,-50.28 -72.19,-50.28 -8.84,0 -17.85,1.54 -26.64,4.8z"/>
  <path class="fil6" d="M888.38 857.53c15.18,-8.98 25.18,-25.15 26.88,-42.27 17.67,11.65 32.7,29.69 33.42,50.72 0.49,13.77 -5.14,26.97 -11.83,38.96 -5.23,9.6 -11.42,18.93 -20.12,25.48 -8.7,6.57 -20.37,9.93 -30.8,6.61 -0.78,-0.3 -1.63,-0.63 -2.56,-0.53 -2.36,0.33 -3.33,3.08 -3.87,5.37 -5.36,21.53 -18.93,41.59 -38.76,51.54 -13.97,7.02 -31.19,8.07 -45.74,2.71 13.71,-1.95 26.25,-10.34 36.04,-20.4 14.62,-15.18 24.56,-35.12 26.07,-56.17 1.41,-21.01 -6.18,-42.8 -21.56,-57.13l-1.63 -0.18c0.18,-1.18 0.32,-2.47 0.44,-3.68 16.55,8.99 37.82,8.53 54.03,-1.02z"/>
  <path class="fil7" d="M702.27 595.78c2.05,5.08 4.01,10.22 5.75,15.44 -0.14,1.74 -1.23,3.2 -2.24,4.41 -6.44,7.43 -15.45,12.44 -25.15,13.97 -1.81,0.28 -3.74,0.43 -5.57,-0.18 -0.72,-0.19 -1.48,-0.56 -2.09,-1.08 -2.5,-5.78 -5.33,-11.44 -8.6,-16.83 -9.08,-15.39 -20.81,-29.22 -34.58,-40.52l0.33 -0.41c10.29,3.43 21.7,3.29 32.01,-0.24 8.04,-2.79 15.66,-8.17 19.41,-15.57 0.44,0.72 0.89,1.42 1.32,2.13 7.44,12.44 13.96,25.41 19.41,38.87z"/>
  <path class="fil8" d="M702.71 816.83c-2.85,-7.45 -5.91,-14.8 -9.4,-21.96 -7.44,-15.21 -16.37,-29.82 -28.37,-41.8 -10.88,-10.72 -24.31,-19.22 -39.12,-22.79 5.05,-2.43 10.52,-4.07 16.06,-4.78 14.81,-1.99 30.37,2.6 41.74,12.27 2.97,-14.85 11.48,-27.84 22.23,-38.8 4.43,-4.54 9.24,-8.66 14.2,-12.48 12.32,-9.46 27.49,-17.72 42.73,-14.6 9.01,1.69 16.74,7.35 24,13.11 -2.17,20.88 2.38,42.67 9.93,62.48 1.1,2.92 2.24,5.77 3.45,8.65l-9.72 21.01c-3.9,-5.88 -9.5,-10.56 -16.07,-13 -3.14,-1.13 -6.72,-1.79 -9.53,-0.11 -2.12,1.33 -3.26,3.57 -3.87,6.1 0.43,4.19 1.34,8.56 2.6,12.71l-17.32 17.99c-1.06,-2.11 -2.33,-4.13 -3.76,-6.01 -3.63,-4.72 -9.61,-8.91 -15.35,-7.01 -4.4,1.43 -7.18,6.08 -7.78,10.67 -0.35,2.28 -0.16,4.58 0.21,6.88l-16.85 11.46z"/>
  <path class="fil7" d="M763.56 782.85c-1.26,-4.15 -2.16,-8.52 -2.6,-12.71 0.62,-2.53 1.75,-4.77 3.87,-6.1 2.8,-1.69 6.38,-1.02 9.53,0.1 6.56,2.45 12.18,7.12 16.08,13.01 2.9,4.52 4.85,9.65 5.36,15.03 0.34,4.24 -0.31,8.91 -3.53,11.69 -2.23,1.82 -5.31,2.42 -8.17,1.94 -2.78,-0.45 -5.42,-1.92 -7.73,-3.61 -6.3,-4.76 -10.32,-11.67 -12.82,-19.34z"/>
  <path class="fil6" d="M786.79 685c-7.26,-5.75 -14.99,-11.42 -24,-13.11 -15.23,-3.12 -30.41,5.15 -42.73,14.6 -4.96,3.8 -9.77,7.94 -14.2,12.48 17.01,-19.53 34.36,-39.91 42.43,-64.51 2.26,-6.99 3.77,-14.63 1.39,-21.64 -1.67,-4.94 -5.1,-9.02 -8.92,-12.55 -7.06,-6.48 -15.6,-11.22 -24.77,-13.86 7.92,-3.83 16.79,-5.76 25.54,-5.96 14.46,-0.41 28.81,3.62 41.74,9.96 32.94,16.11 57.86,47.64 65.92,83.47 -8.76,-8.12 -21.41,-11.93 -33.2,-9.86 -12.24,2.06 -23.26,10.23 -28.65,21.38l-0.55 -0.4z"/>
  <path class="fil6" d="M702.26 595.78c2.06,5.08 4.01,10.21 5.75,15.45 -0.13,1.73 -1.23,3.19 -2.24,4.41 -6.44,7.43 -15.45,12.46 -25.16,13.97 -1.8,0.29 -3.73,0.43 -5.55,-0.18 -0.73,-0.19 -1.49,-0.57 -2.09,-1.08 -2.5,-5.79 -5.33,-11.44 -8.62,-16.83l-2.65 1.57c-5.96,-0.78 -12.07,0.44 -17.75,2.44 -23.86,8.57 -40.38,31.42 -47.35,55.73 -6.93,24.41 -5.58,50.31 -2.96,75.47 0.63,6.23 1.46,12.89 4.12,18.48 1.03,-6.13 3.63,-11.92 7.12,-17.02 5.27,-7.61 12.58,-13.82 20.95,-17.91 5.05,-2.43 10.51,-4.07 16.06,-4.8 14.79,-1.97 30.36,2.63 41.74,12.28 2.97,-14.85 11.48,-27.84 22.23,-38.8 17.01,-19.52 34.37,-39.9 42.43,-64.5 2.25,-6.99 3.79,-14.63 1.39,-21.63 -1.67,-4.94 -5.1,-9.04 -8.93,-12.56 -7.06,-6.48 -15.59,-11.22 -24.76,-13.86 -5.03,2.35 -9.72,5.46 -13.73,9.36z"/>
  <path class="fil9" d="M702.26 595.78c2.06,5.08 4.01,10.21 5.75,15.44 -0.13,1.74 -1.23,3.2 -2.24,4.41 -6.44,7.43 -15.45,12.46 -25.16,13.97 -1.8,0.29 -3.73,0.43 -5.55,-0.18 -0.73,-0.19 -1.49,-0.57 -2.09,-1.08 -2.5,-5.79 -5.33,-11.44 -8.62,-16.82l-2.65 1.56c-5.96,-0.78 -12.07,0.44 -17.75,2.44 -23.86,8.57 -40.38,31.42 -47.35,55.73 -6.93,24.41 -5.58,50.31 -2.96,75.47 0.63,6.23 1.46,12.89 4.12,18.48 1.03,-6.13 3.63,-11.92 7.12,-17.02 5.27,-7.61 12.58,-13.82 20.95,-17.91 5.05,-2.43 10.51,-4.07 16.06,-4.8 14.79,-1.97 30.36,2.63 41.74,12.28 2.96,-14.85 11.47,-27.84 22.22,-38.8 17.01,-19.52 34.37,-39.9 42.43,-64.5 2.25,-7 3.79,-14.63 1.39,-21.63 -1.67,-4.94 -5.1,-9.04 -8.93,-12.56 -7.06,-6.48 -15.59,-11.22 -24.76,-13.86 -5.03,2.35 -9.72,5.46 -13.73,9.36z"/>
  <path class="fil8" d="M790.44 777.15l9.72 -21.01c18.03,41.74 49.25,77.75 88.23,101.38 -16.21,9.57 -37.49,10.03 -54.03,1.03 -0.12,1.21 -0.25,2.5 -0.44,3.68 -3.07,19.55 -16.16,37.47 -34,46.13 -19.01,9.2 -42.75,7.72 -60.4,-3.75 -2.4,12.48 -5.17,25.18 -12.06,35.84 -4.41,6.79 -10.44,12.24 -17.49,16.12 14.19,-19.63 13.68,-46.3 10.27,-70.32 -3.35,-23.72 -9.06,-47.11 -17.52,-69.42l16.85 -11.45c0.34,2.36 1,4.58 1.55,6.85l0.99 -0.25c1.66,6.81 5.27,13.21 10.54,17.84 2.25,2.03 4.97,3.8 7.98,3.62 2.73,-0.12 5.21,-1.93 6.71,-4.2 1.54,-2.35 2.14,-5.07 2.48,-7.8 0.83,-7 -0.47,-14.3 -3.58,-20.6l17.31 -17.98c2.5,7.67 6.53,14.59 12.84,19.34 2.29,1.7 4.94,3.16 7.72,3.61 2.86,0.48 5.95,-0.11 8.17,-1.93 3.22,-2.78 3.86,-7.45 3.53,-11.69 -0.52,-5.38 -2.46,-10.51 -5.37,-15.03z"/>
  <path class="fil7" d="M722.1 811.98l-0.99 0.25c-0.55,-2.27 -1.21,-4.49 -1.55,-6.85 -0.36,-2.3 -0.55,-4.6 -0.2,-6.88 0.61,-4.59 3.38,-9.24 7.78,-10.67 5.75,-1.89 11.71,2.29 15.35,7 1.43,1.89 2.7,3.9 3.76,6.01 3.11,6.3 4.41,13.6 3.58,20.6 -0.34,2.73 -0.94,5.45 -2.48,7.8 -1.5,2.28 -3.99,4.09 -6.71,4.2 -3.02,0.18 -5.73,-1.58 -7.98,-3.62 -5.28,-4.64 -8.88,-11.03 -10.54,-17.84z"/>
  <path class="fil9" d="M799.92 908.37c-19.02,9.19 -42.77,7.71 -60.41,-3.77 -2.41,12.48 -5.17,25.19 -12.05,35.86 -4.41,6.78 -10.45,12.23 -17.5,16.12 -14.4,8.12 -32.74,9.79 -47.83,2.79 0.02,1.36 0.55,2.73 1.16,3.94 8.36,17 22.02,31.39 38.53,40.71 12.42,6.95 27.39,11.03 40.81,6.38 12.29,-4.28 20.94,-14.88 29.32,-24.79 0.65,-0.74 1.39,-1.52 2.3,-1.79 1.69,-0.42 3.2,0.97 4.44,2.16 4.71,4.5 10.27,7.9 16.29,10.13 13.71,-1.94 26.25,-10.33 36.05,-20.4 14.62,-15.18 24.56,-35.11 26.07,-56.17 1.41,-21.01 -6.18,-42.79 -21.56,-57.13l-1.63 -0.18c-3.08,19.55 -16.17,37.46 -33.99,46.13z"/>
  <path class="fil10" d="M681.54 554.78c-3.75,7.4 -11.37,12.78 -19.42,15.56 -10.3,3.53 -21.71,3.68 -32,0.25 9.77,-11.42 24.11,-18.94 39.03,-20.51 3.16,-0.3 6.48,-0.35 9.15,1.31 1.28,0.85 2.33,2.05 3.25,3.39z"/>
  <path class="fil11" d="M1023.82 64.88l-0.28 0c-22.46,0.01 -42.55,15.92 -46.97,38.77 0,0 -0.13,0.66 -0.33,1.87l-0.15 1.27c-0.27,1.83 -0.38,3.7 -0.39,5.54l-0.03 1.21c-0.39,20.02 5.54,67.69 62.11,116.75 0,0 80.78,-16.33 107.35,-80.6 1.67,-4.01 3.14,-8.19 4.33,-12.55 5.01,-25.92 -11.94,-51.08 -37.89,-56.09 -16.57,-3.21 -32.77,2.54 -43.62,13.84 -5.87,-14.53 -18.74,-25.92 -35.3,-29.12 -2.97,-0.58 -5.92,-0.87 -8.83,-0.89z"/>
  <path class="fil12" d="M897.67 1569.15c-2.93,-6.11 -2.96,-13.05 -1.08,-19.49 2.23,-7.64 6.28,-14.64 11.1,-21.16 -0.07,-0.85 -0.05,-1.75 0.09,-2.71l19.39 -25.98 24.76 20.31 -12.07 -60.6 -58.9 2.38 18.77 15.4 -24.05 32.23 -0.9 2.62c-5.12,14.92 -2.5,31.35 7,43.94 4.37,5.8 9.93,10.4 16.18,13.61l-0.29 -0.55z"/>
  <path class="fil12" d="M920.24 1539.46c-4.39,0.23 -7.34,-1.77 -9,-3.41 -2.72,4.07 -5.08,8.33 -6.78,12.85 -1.94,5.13 -2.79,10.86 -0.72,16.09 1.49,3.77 4.19,6.74 7.36,9.17 3.6,0.65 7.28,0.9 11.02,0.71l37.03 -1.96 -1.87 -35.4 -37.02 1.96z"/>
  <path class="fil12" d="M1091.89 1523.05c-3.32,5.91 -8.98,9.93 -15.33,12.08 -7.54,2.56 -15.59,3.27 -23.69,3.08 -0.65,0.54 -1.4,1.05 -2.27,1.48l-32.4 -0.95 2.4 -31.93 -42.67 44.69 35.79 46.84 1.82 -24.21 40.18 1.17 2.67 -0.77c15.15,-4.38 27.1,-15.96 31.94,-30.97 2.23,-6.91 2.81,-14.1 1.85,-21.07l-0.29 0.55z"/>
  <path class="fil12" d="M1054.63 1521.63c2.71,3.46 2.76,7.02 2.38,9.33 4.89,-0.11 9.73,-0.62 14.42,-1.82 5.31,-1.36 10.5,-3.96 13.58,-8.65 2.22,-3.38 3.11,-7.3 3.27,-11.3 -1.52,-3.32 -3.44,-6.49 -5.75,-9.43l-22.88 -29.18 -27.9 21.87 22.88 29.18z"/>
  <path class="fil12" d="M956.21 1387.03c6.78,0.06 13.02,3.08 17.97,7.6 5.88,5.37 10.38,12.08 14.11,19.27 0.79,0.31 1.6,0.72 2.4,1.28l14.79 28.85 -29.13 13.29 59.73 15.83 23.78 -53.93 -22.09 10.08 -18.35 -35.78 -1.96 -1.96c-11.15,-11.17 -27.05,-16.04 -42.54,-13.05 -7.12,1.38 -13.71,4.34 -19.34,8.54l0.62 -0.02z"/>
  <path class="fil12" d="M972.93 1420.36c1.72,-4.04 4.81,-5.81 7.02,-6.58 -2.45,-4.23 -5.24,-8.22 -8.55,-11.75 -3.75,-4 -8.52,-7.29 -14.13,-7.73 -4.03,-0.32 -7.88,0.8 -11.47,2.58 -2.17,2.94 -4.01,6.14 -5.48,9.59l-14.54 34.11 32.62 13.89 14.53 -34.11z"/>
  <path class="fil12" d="M1064.88 1664.31l-167.75 0c-8.58,0 -15.53,-6.95 -15.53,-15.53 0,-8.58 6.95,-15.53 15.53,-15.53l167.75 0c8.58,0 15.53,6.95 15.53,15.53 0,8.58 -6.95,15.53 -15.53,15.53z"/>
  <path class="fil7" d="M2133.92 774.11c-19.08,-115.86 -69.91,-108.01 -97.5,-100.16 -15.1,4.3 -23.23,8.59 -15.36,-7.42 22.25,-45.27 18.27,-124.23 -36.82,-154 -55.08,-29.77 -15.97,5.17 -21.19,-61.17 -5.23,-66.34 -108.87,-101.69 -108.87,-101.69 -61.44,-4.54 -126.3,8.45 -175.3,45.81 -17.89,13.64 -36.91,62.45 -36.91,142.62 0,0 16.87,118.13 -21.1,135.01 -63.58,28.26 -0.82,86.27 18.35,97.85l310.18 -6.81 1.67 -40.79 14.15 40.47 168.68 10.29z"/>
  <path class="fil7" d="M1908.14 417.06c-9.19,-20.79 -18.53,-42.28 -18.89,-65 -0.35,-22.73 10.63,-47.21 31.7,-55.74 22.21,-8.98 47.87,2.29 65.59,18.43 23.35,21.26 38.77,54.2 30.55,84.69 -8.23,30.49 -46.13,52.03 -73.59,36.43l-35.34 -18.81z"/>
  <path class="fil13" d="M1686.61 579.85l20.66 71.48c5.82,32.53 -24.69,59.76 -56.35,50.31 -31.06,-9.28 -42,-47.66 -20.48,-71.91l56.17 -49.88z"/>
  <path class="fil14" d="M1855.18 534.26c0.3,2.95 2.95,5.07 5.89,4.67 12.28,-1.68 40.31,-8.05 48.56,23.59 8.34,31.97 -20.22,54.36 -38.73,57.83 -5.35,1.01 -17.62,3.74 -20.74,8.19 -9.6,13.67 -11.35,41.01 -15.59,75.37 -9.38,75.87 52.67,101.78 52.67,101.78 0,0 -355.59,381.89 -190.41,24.89 0,0 -7.8,-176.23 -8.81,-177.01 -16.98,-13.02 -76.1,-11.77 -55.85,-140.8 18.76,-119.52 104.24,-122.47 126.2,-121.5 18.53,0.82 81.91,-3.53 96.81,142.99z"/>
  <path class="fil15" d="M1854.88 593.33c7.46,-24.93 16.29,-32.02 23.93,-32.02 10.08,0 18.08,12.38 18.08,12.38l-42.01 19.64z"/>
  <path class="fil15" d="M1751.5 606.58c-14.67,0 -27.29,-11.05 -28.92,-25.97 -1.75,-15.99 9.8,-30.37 25.79,-32.11 1.07,-0.12 2.14,-0.18 3.2,-0.18 14.67,0 27.29,11.05 28.91,25.97 1.74,15.99 -9.8,30.37 -25.8,32.11 -1.07,0.12 -2.13,0.18 -3.19,0.18z"/>
  <path class="fil16" d="M1628.12 567.58c-1.14,-9.89 -0.25,-21.11 0.97,-30.12 -0.99,11.2 -1.28,21.19 -0.97,30.12z"/>
  <path class="fil15" d="M1629.49 575.15c-0.62,-2.38 -1.07,-4.92 -1.37,-7.56 -0.31,-8.92 -0.02,-18.92 0.97,-30.12 1.32,-9.69 3.04,-16.78 3.04,-16.78 9.29,4.03 16.21,12.79 17.39,23.57 1.53,13.99 -7.13,26.75 -20.03,30.89z"/>
  <path class="fil17" d="M1651.83 557.06l46.91 16.12c0,0 -19.46,18.5 -32.23,11.47 -12.76,-7.04 -14.68,-27.58 -14.68,-27.58z"/>
  <path class="fil15" d="M1683.27 553.54l-16.19 -4.74c-2.99,-0.87 -3.94,-4.63 -1.75,-6.82l20.75 -20.77 -2.82 32.33z"/>
  <path class="fil18" d="M1736.23 501.42c4.52,4.84 -0.15,-13.49 -6.99,-16.94 -6.84,-3.46 -14.8,-1.47 -17.78,4.44 0,0 13.91,0.9 24.77,12.51z"/>
  <path class="fil18" d="M1649.08 480.97c-6.08,2.6 5.56,-12.31 13.21,-12.72 7.65,-0.41 14.14,4.61 14.5,11.21 0,0 -13.1,-4.77 -27.71,1.5z"/>
  <path class="fil18" d="M1713.89 527.89c-1.43,5.54 -4.77,9.47 -7.45,8.78 -2.68,-0.69 -3.7,-5.75 -2.27,-11.29 1.43,-5.54 4.77,-9.47 7.45,-8.78 2.69,0.69 3.7,5.75 2.27,11.29z"/>
  <path class="fil18" d="M1670.57 513.85c-1.37,5.29 -4.56,9.05 -7.12,8.39 -2.56,-0.66 -3.53,-5.49 -2.17,-10.78 1.36,-5.29 4.55,-9.05 7.12,-8.38 2.57,0.66 3.54,5.49 2.18,10.78z"/>
  <path class="fil19" d="M1688.16 654.28c-0.05,-0.24 -0.09,-0.47 -0.13,-0.71 0.03,0.03 0.08,0.27 0.13,0.71z"/>
  <path class="fil15" d="M1720.96 691.83c-14.51,0 -27.55,-9.47 -32.8,-37.55 -0.05,-0.44 -0.1,-0.68 -0.13,-0.71 0,0 16.63,0.96 36.22,0.96 16.43,0 34.95,-0.68 47.48,-3.16 0.76,-0.15 1.42,-0.22 2,-0.22 6.83,0 1.16,10.17 -9.98,20.34 -11.13,10.17 -27.74,20.34 -42.78,20.34z"/>
  <path class="fil7" d="M1665.6 419.71c0,0 42.18,3.71 79.11,31.64 43.25,32.7 26.69,-41.28 49.84,13.88 23.16,55.16 9.25,83.45 81.16,66.91 0,0 -12.86,-281.2 -210.1,-112.43z"/>
  <path class="fil12" d="M1928.24 1314.16c54.88,97.02 135.66,163.41 167.19,286.76 20.7,80.96 145.9,503.88 264.23,904.84l-371.51 0 -177.11 -619.06c-9.59,-33.51 -59,-26.45 -58.81,8.41l3.32 610.65 -298.77 0c-2.22,-453.28 31.24,-972.58 171.36,-1204.17 108.79,-15 189.79,9.28 300.1,12.57z"/>
  <path class="fil17" d="M1520.66 2505.76c-4.81,-225.18 -8.71,-447.81 -8.71,-577.04 0,-334.99 132.85,-604.21 134.18,-606.89l3.07 1.53c-1.34,2.68 -133.83,271.22 -133.83,605.36 0,129.22 3.9,351.86 8.71,577.04l-3.43 0z"/>
  <polygon class="fil17" points="2281.2,2505.76 1923.58,1314.8 1926.86,1313.8 2284.79,2505.76 "/>
  <polygon class="fil17" points="2025.87,1652.46 1851.41,1310.42 1854.46,1308.86 2028.92,1650.9 "/>
  <path class="fil20" d="M1969.54 1377.63c-14.53,-20.25 -28.61,-41.04 -41.3,-63.48 -0.02,0 -0.05,0 -0.07,0l0.07 0c14.16,21.45 28.01,42.72 41.3,63.48z"/>
  <path class="fil21" d="M2091.12 1628.02c-0.48,0 -0.99,-0.03 -1.51,-0.09l-85.52 -56.94 -77.12 -256.85 1.2 0.02c0.02,0 0.05,0 0.07,0 12.69,22.44 26.77,43.23 41.3,63.48 87.2,136.16 150.68,250.38 121.58,250.38zm-91.52 -60.02l-19.63 -13.07 -123.19 -241.52 69.01 0.72 -2.22 0.67 76.03 253.2z"/>
  <polygon class="fil20" points="2004.09,1570.99 1999.6,1568 1923.58,1314.8 1925.79,1314.13 1926.97,1314.14 "/>
  <path class="fil21" d="M1974.15 1551.05l-329.03 -219.07c2.51,-5.41 3.96,-8.36 4.1,-8.62l-3.07 -1.53c-0.13,0.26 -1.52,3.07 -3.91,8.23l-14.33 -9.54c0.37,-2.99 0.7,-6.15 0.99,-9.49l224.03 2.34 121.23 237.68z"/>
  <path class="fil20" d="M1645.11 1331.98l-2.89 -1.93c2.39,-5.16 3.78,-7.97 3.91,-8.23l3.07 1.53c-0.14,0.27 -1.58,3.21 -4.1,8.62z"/>
  <polygon class="fil20" points="1979.97,1554.93 1974.15,1551.05 1852.91,1313.37 1856.79,1313.41 "/>
  <polygon class="fil17" points="1539.55,1679.79 1536.4,1678.42 1684.08,1340.89 1687.22,1342.27 "/>
  <path class="fil14" d="M939.43 1271.2c100.21,-3.1 167.13,-2.97 176.48,-2.24l323.05 -7.06 -0.97 -0.83c0,0 16.31,-0.09 27.78,-0.96 5.55,-0.42 10.2,-4.32 11.47,-9.74 30.99,-130.75 93.7,-475.38 206.12,-447.28 1.62,0.4 39.54,5.95 35.5,11.04 -36.82,46.38 -103.94,274.23 -103.94,274.23 -0.78,3.46 -0.67,18.73 -0.59,40.76 39.58,226.83 -7.76,244.39 -7.76,244.39 -6.71,4.13 -14.72,7.6 -23.84,10.5l-0.52 0.71 -0.46 -0.39c-144.26,44.82 -561.62,-52.62 -561.62,-52.62 -34,-9.13 -109.76,-59.63 -80.7,-60.53z"/>
  <path class="fil15" d="M1614.47 965.44c8.35,-47.53 12.89,-95.63 12.28,-144.04 13.62,-12.67 28.19,-19.92 43.79,-19.92 4.2,0 8.47,0.53 12.82,1.62 0.69,0.17 -5.76,33.84 -13.68,72.74 -18.49,29.58 -36.29,60.04 -55.2,89.6z"/>
  <path class="fil22" d="M1540.77 1360.68c-1.24,10.62 -1.25,21.33 -0.64,32.06 15.51,-1.89 29.54,-4.64 41.62,-8.39l0.45 0.39 0.52 -0.71c9.12,-2.9 17.13,-6.38 23.84,-10.5 0,0 25.49,-9.59 23.37,-104.46 -45.2,3.96 -84.23,49.3 -89.17,91.61z"/>
  <path class="fil14" d="M1083.68 1268.36c0,0 -75.79,-47.99 -78.96,-36.37 -6.24,22.86 56.74,46.91 48.83,54.03 0,0 18.27,-11.33 30.13,-17.66z"/>
  <path class="fil23" d="M1694.09 794.68c-1.58,-9.5 -9.49,1.59 -25.32,6.33 -32.7,69.53 -101.39,254.23 -98.71,307.89 3.8,75.89 37.35,172.75 33.31,184.16 0,0 67.5,29.53 324.87,16.88 4.67,-79.28 148.55,-329.08 20.29,-466.65 -14.08,-21.96 -77.47,-68.71 -109.59,-81.61 0,0 -167.01,248.18 -144.86,33z"/>
  <path class="fil13" d="M1854.41 592.69l43.91 60.07c16.62,28.55 -2.7,64.61 -35.68,66.57 -32.37,1.93 -55.79,-30.37 -43.9,-60.53l35.67 -66.11z"/>
  <path class="fil6" d="M1543.66 1316.16c0,0 143.5,-489.9 320.81,-494.68 145.42,-3.93 277.91,47.15 413.24,381.66l-116.72 12.47c0,0 -118.07,-360.36 -267.55,-384.07 -149.48,-23.72 -219.16,449.72 -219.16,449.72l-130.62 34.9z"/>
  <path class="fil9" d="M2266.65 1889.9l-538.6 71.96c-69.17,9.24 -132.74,-39.34 -141.98,-108.52l-76.14 -569.91 789.1 -105.42 76.14 569.91c9.24,69.17 -39.34,132.74 -108.52,141.98z"/>
  <path class="fil23" d="M1827.94 1791.08c-8.37,-10.92 -11.34,-24.68 -10.3,-38.24 1.24,-16.11 6.35,-31.7 13.18,-46.66 -0.49,-1.65 -0.84,-3.46 -0.94,-5.44l27.64 -59.69 57.65 29.98 -49.29 -115.29 -115.97 29.35 43.72 22.74 -34.29 74.04 -0.69 5.58c-3.93,31.78 8.14,63.3 32.27,84.33 11.1,9.68 24.06,16.51 37.82,20.27l-0.79 -0.98z"/>
  <path class="fil23" d="M2194.37 1618.34c-4.13,13.12 -13.68,23.46 -25.38,30.39 -13.9,8.24 -29.59,13.01 -45.76,16.02 -1.07,1.36 -2.35,2.68 -3.91,3.9l-64.74 11.67 -8.58 -64.41 -66.06 106.58 90.65 78.06 -6.51 -48.85 80.3 -14.47 4.97 -2.64c28.27,-15.04 47.14,-43.02 50.49,-74.86 1.55,-14.66 -0.31,-29.18 -5.14,-42.61l-0.34 1.22z"/>
  <path class="fil23" d="M2119.78 1631.11c6.82,5.72 8.42,12.78 8.62,17.51 9.66,-2.25 19.05,-5.3 27.86,-9.64 9.98,-4.92 19.18,-12.26 23.35,-22.86 3.01,-7.65 3.12,-15.8 1.78,-23.8 -4.42,-5.94 -9.56,-11.43 -15.36,-16.3l-57.63 -48.38 -46.26 55.1 57.63 48.38z"/>
  <path class="fil23" d="M1868.05 1404.96c13.48,-2.71 27.15,0.67 38.87,7.58 13.92,8.2 25.67,19.65 36.1,32.37 1.7,0.28 3.47,0.76 5.29,1.54l41.44 51.09 -52.29 38.57 125.23 6.48 24.67 -117.06 -39.66 29.25 -51.39 -63.37 -4.71 -3.08c-26.81,-17.51 -60.43,-20.55 -89.93,-8.13 -13.58,5.71 -25.41,14.34 -34.85,25.04l1.23 -0.28z"/>
  <path class="fil23" d="M1915.2 1464.15c1.73,-8.74 7.14,-13.54 11.19,-16 -6.64,-7.38 -13.84,-14.14 -21.89,-19.75 -9.12,-6.38 -19.98,-10.9 -31.29,-9.45 -8.15,1.06 -15.34,4.89 -21.72,9.92 -3.07,6.75 -5.41,13.89 -6.88,21.33l-14.59 73.82 70.57 13.95 14.6 -73.82z"/>
  <path class="fil1" d="M469.05 0c0,0 -147.52,30.29 -118.23,129.25 0,0 126.54,15.77 118.23,-129.25z"/>
  <path class="fil11" d="M64.77 328.7c0,0 -4.5,-85.65 -62.72,-77.58 0,0 -19.65,69.92 62.72,77.58z"/>
  <path class="fil1" d="M2391.81 1421.69c0,0 -27.75,-78.53 62.49,-101.68 0,0 34.1,99.58 -62.49,101.68z"/>
  <path class="fil11" d="M2179.54 204.39c0,0 -27.75,-78.53 62.5,-101.68 0,0 34.1,99.59 -62.5,101.68z"/>
  <path class="fil1" d="M2444 1505.87c0,0 29.45,-101.23 136.97,-69.76l0 41.04c-21.18,35.58 -64.37,78.5 -136.97,28.72z"/>
 </g>
</svg>
