<?xml version="1.0" encoding="UTF-8"?>
<!DOCTYPE svg PUBLIC "-//W3C//DTD SVG 1.1//EN" "http://www.w3.org/Graphics/SVG/1.1/DTD/svg11.dtd">
<!-- Creator: CorelDRAW 2021 (64-Bit) -->
<svg xmlns="http://www.w3.org/2000/svg" xml:space="preserve" width="102.808mm" height="131.916mm" version="1.1" style="shape-rendering:geometricPrecision; text-rendering:geometricPrecision; image-rendering:optimizeQuality; fill-rule:evenodd; clip-rule:evenodd"
viewBox="0 0 7498.38 9621.36"
 xmlns:xlink="http://www.w3.org/1999/xlink"
 xmlns:xodm="http://www.corel.com/coreldraw/odm/2003">
 <defs>
  <style type="text/css">
   <![CDATA[
    .fil0 {fill:white}
   ]]>
  </style>
 </defs>
 <g id="Layer_x0020_1">
  <metadata id="CorelCorpID_0Corel-Layer"/>
  <g id="_2286620428144">
   <path class="fil0" d="M375.86 4791.57l0 -2537.05c0,-75.84 269.15,-181.86 386.72,-252.24 143.06,-85.64 285.74,-148.01 425,-232.74l835.55 -461.17c292.04,-147.03 547.86,-309.77 839.9,-456.8l313.82 -174.8c37.57,-21.72 73.5,-36.36 111.06,-58.08 544.62,-314.84 320.54,-267.43 1053.01,113.85l2550.07 1358.87c59.84,33.49 168.71,92.1 231.53,106.73 0,757.98 0,1515.96 0,2273.95 0,1231.97 -323.83,2221.06 -1084.06,3163.15l-728.18 718.87c-530.15,416.4 -830.4,539.36 -1458.26,815.7 -213.53,93.98 -114.73,97.23 -581.73,-112.56 -614.19,-275.91 -1040.95,-579.88 -1527.25,-1066.19 -410.62,-410.61 -666.46,-820.87 -928.91,-1345.03 -114.55,-228.77 -236.21,-594.19 -299.44,-846.93 -71.58,-286.13 -138.83,-665.13 -138.83,-1007.54zm-375.86 -2687.39l0 2593.43c0,1158.92 439.67,2276.66 1127.58,3157.22 208.56,266.97 529.46,598.32 791.73,805.67 284.94,225.28 477.13,362.96 799.42,534.87l557.56 269.34c110.29,51.57 320.06,156.66 425.92,156.66 61.6,0 664.6,-268.03 758.23,-312.97 373.98,-179.51 687.17,-361.85 1008.52,-607.68 733.68,-561.28 1282.83,-1296.62 1642.84,-2153.33 188.74,-449.12 386.59,-1170.04 386.59,-1793.39l0 -2687.39c0,-32.04 -41.23,-86.52 -64.39,-104.75 -26.58,-20.93 -85.87,-47.54 -119.89,-68.04 -264.63,-159.45 -875.6,-452.67 -1188.44,-634.47 -154.07,-89.54 -318.55,-163.51 -481.61,-251.31l-1666.5 -889.35c-327.43,-166.17 -218.52,-200.46 -877.57,180.54l-2925.15 1603.95c-82.56,45.38 -174.83,82.35 -174.83,201.02z"/>
   <path class="fil0" d="M3213.59 5468.12c-61.96,-41.49 -612.24,-711.18 -700.05,-803.39 -66.84,-70.19 -160.14,-230.22 -277.18,-230.22 -100.91,0 -187.93,99.06 -187.93,206.72 0,55.4 427.58,560.66 530.94,671.81 54.81,58.95 86.06,100.86 140.86,159.82 104.91,112.85 322.96,446.29 455.77,446.29 118.37,0 226.52,-117.7 349.13,-214.65l1948.25 -1584.82c234.14,-203.21 33.81,-361.72 -23.44,-361.72 -184.07,0 -134.94,17.77 -365.19,198.6 -98.24,77.15 -174.42,141.71 -269.45,219.16 -157.67,128.5 -1506.84,1242.19 -1601.72,1292.39z"/>
  </g>
 </g>
</svg>
