<?xml version="1.0" encoding="UTF-8"?>
<!DOCTYPE svg PUBLIC "-//W3C//DTD SVG 1.1//EN" "http://www.w3.org/Graphics/SVG/1.1/DTD/svg11.dtd">
<!-- Creator: CorelDRAW 2021 (64-Bit) -->
<svg xmlns="http://www.w3.org/2000/svg" xml:space="preserve" width="210mm" height="208.731mm" version="1.1" style="shape-rendering:geometricPrecision; text-rendering:geometricPrecision; image-rendering:optimizeQuality; fill-rule:evenodd; clip-rule:evenodd"
viewBox="0 0 15973.89 15877.39"
 xmlns:xlink="http://www.w3.org/1999/xlink"
 xmlns:xodm="http://www.corel.com/coreldraw/odm/2003">
 <defs>
  <style type="text/css">
   <![CDATA[
    .fil0 {fill:white;fill-rule:nonzero}
   ]]>
  </style>
 </defs>
 <g id="Layer_x0020_1">
  <metadata id="CorelCorpID_0Corel-Layer"/>
  <g id="_2207914158784">
   <path class="fil0" d="M15973.89 7986.94c0,-4410.79 -3576.16,-7986.94 -7986.95,-7986.94 -4410.78,0 -7986.94,3576.16 -7986.94,7986.94 0,3986.82 2920.56,7290.75 6738.99,7889.78l0 -5580.89 -2028.02 0 0 -2309.56 2028.02 0 0 -1758.45c0,-2001.4 1192.72,-3107.59 3017.07,-3107.59 873.24,0 1787.75,156.41 1787.75,156.41l0 1965.46 -1007.69 -0.01c-992.38,0 -1301.87,615.66 -1301.87,1247.3l0 1497.55 2215.05 0.01 -354.09 2309.56 -1860.96 0 0 5580.89c3819.09,-599.69 6739.66,-3904.3 6739.66,-7890.45z"/>
  </g>
 </g>
</svg>
