<?xml version="1.0" encoding="UTF-8"?>
<!DOCTYPE svg PUBLIC "-//W3C//DTD SVG 1.1//EN" "http://www.w3.org/Graphics/SVG/1.1/DTD/svg11.dtd">
<!-- Creator: CorelDRAW 2021 (64-Bit) -->
<svg xmlns="http://www.w3.org/2000/svg" xml:space="preserve" width="210mm" height="210mm" version="1.1" style="shape-rendering:geometricPrecision; text-rendering:geometricPrecision; image-rendering:optimizeQuality; fill-rule:evenodd; clip-rule:evenodd"
viewBox="0 0 3924.51 3924.51"
 xmlns:xlink="http://www.w3.org/1999/xlink"
 xmlns:xodm="http://www.corel.com/coreldraw/odm/2003">
 <defs>
  <style type="text/css">
   <![CDATA[
    .fil0 {fill:white;fill-rule:nonzero}
   ]]>
  </style>
 </defs>
 <g id="Layer_x0020_1">
  <metadata id="CorelCorpID_0Corel-Layer"/>
  <g id="_2207869684496">
   <path class="fil0" d="M1962.25 0c-533.08,0 -599.63,2.45 -808.94,11.77 -208.98,9.81 -351.24,42.68 -476.34,91.24 -129.02,50.04 -238.58,117.25 -347.65,226.31 -109.07,109.07 -176.44,218.46 -226.31,347.65 -48.57,125.09 -81.6,267.36 -91.24,476.34 -9.81,209.31 -11.77,275.86 -11.77,808.94 0,533.08 2.45,599.63 11.77,808.94 9.81,208.82 42.68,351.24 91.24,476.34 50.04,128.85 117.25,238.58 226.31,347.65 109.07,108.91 218.46,176.44 347.65,226.31 125.26,48.4 267.52,81.6 476.34,91.24 209.31,9.81 275.86,11.77 808.94,11.77 533.08,0 599.63,-2.45 808.94,-11.77 208.82,-9.81 351.24,-42.84 476.34,-91.24 128.85,-50.04 238.58,-117.41 347.65,-226.31 108.91,-109.07 176.44,-218.3 226.31,-347.65 48.4,-125.09 81.6,-267.52 91.24,-476.34 9.81,-209.31 11.77,-275.86 11.77,-808.94 0,-533.08 -2.45,-599.63 -11.77,-808.94 -9.81,-208.82 -42.84,-351.41 -91.24,-476.34 -50.04,-129.02 -117.41,-238.58 -226.31,-347.65 -109.07,-109.07 -218.3,-176.44 -347.65,-226.31 -125.09,-48.57 -267.52,-81.6 -476.34,-91.24 -209.31,-9.81 -275.86,-11.77 -808.94,-11.77zm0 353.21c523.76,0 586.22,2.62 793.08,11.61 191.32,8.99 295.16,40.72 364.16,67.86 91.9,35.49 156.98,78 225.99,146.51 68.52,68.68 111.03,133.92 146.51,225.82 26.82,69.01 58.87,172.84 67.54,364.16 9.32,207.02 11.45,269.16 11.45,793.08 0,523.92 -2.45,586.22 -12.1,793.08 -9.98,191.32 -41.86,295.16 -68.84,364.16 -36.63,91.9 -78.33,156.98 -147.01,225.99 -68.52,68.52 -134.74,111.03 -225.66,146.51 -68.68,26.82 -174.15,58.87 -365.47,67.54 -208.33,9.32 -269.65,11.45 -794.55,11.45 -525.07,0 -586.39,-2.45 -794.55,-12.1 -191.48,-9.98 -296.95,-41.86 -365.63,-68.84 -93.04,-36.63 -156.98,-78.33 -225.5,-147.01 -68.84,-68.52 -112.83,-134.74 -147.17,-225.66 -26.98,-68.68 -58.71,-174.15 -68.68,-365.47 -7.36,-206.04 -9.98,-269.65 -9.98,-792.1 0,-522.61 2.62,-586.39 9.98,-794.88 9.98,-191.32 41.7,-296.63 68.68,-365.31 34.34,-93.21 78.33,-156.98 147.17,-225.82 68.52,-68.52 132.45,-112.67 225.5,-146.84 68.68,-27.14 171.86,-59.03 363.18,-68.84 208.49,-7.36 269.81,-9.81 794.55,-9.81l7.36 4.91zm0 601.43c-556.79,0 -1007.62,451.32 -1007.62,1007.62 0,556.79 451.32,1007.62 1007.62,1007.62 556.79,0 1007.62,-451.32 1007.62,-1007.62 0,-556.79 -451.32,-1007.62 -1007.62,-1007.62zm0 1661.7c-361.38,0 -654.08,-292.7 -654.08,-654.08 0,-361.38 292.7,-654.08 654.08,-654.08 361.38,0 654.08,292.7 654.08,654.08 0,361.38 -292.7,654.08 -654.08,654.08zm1282.99 -1701.44c0,130 -105.63,235.47 -235.47,235.47 -130,0 -235.47,-105.63 -235.47,-235.47 0,-129.84 105.63,-235.31 235.47,-235.31 129.67,-0.16 235.47,105.47 235.47,235.31z"/>
  </g>
 </g>
</svg>
