<?xml version="1.0" encoding="UTF-8"?>
<!DOCTYPE svg PUBLIC "-//W3C//DTD SVG 1.1//EN" "http://www.w3.org/Graphics/SVG/1.1/DTD/svg11.dtd">
<!-- Creator: CorelDRAW 2021 (64-Bit) -->
<svg xmlns="http://www.w3.org/2000/svg" xml:space="preserve" width="135.45mm" height="135.45mm" version="1.1" style="shape-rendering:geometricPrecision; text-rendering:geometricPrecision; image-rendering:optimizeQuality; fill-rule:evenodd; clip-rule:evenodd"
viewBox="0 0 4513.31 4513.31"
 xmlns:xlink="http://www.w3.org/1999/xlink"
 xmlns:xodm="http://www.corel.com/coreldraw/odm/2003">
 <defs>
  <style type="text/css">
   <![CDATA[
    .fil0 {fill:white}
   ]]>
  </style>
 </defs>
 <g id="Layer_x0020_1">
  <metadata id="CorelCorpID_0Corel-Layer"/>
  <g id="_2286615641712">
   <path class="fil0" d="M714.02 3155.79l494.81 -201.58c129.7,-53.16 405.74,-186.28 536.55,-186.28 108.39,0 241.73,78.7 334.58,132.62 98.59,57.25 197.23,109.73 297.32,169.88l441.92 263.29c191.6,113.81 66.09,289.28 -24.82,289.28 -103.53,0 -231.57,-72.32 -326.01,-114.75 -34.3,-15.41 -262.62,-123.26 -282.23,-123.26 -57.23,0 -148.72,92.72 2.45,156.23 123.25,51.78 464.17,231.64 570.53,231.64 186.14,0 308.53,-134.96 308.53,-299.71 42.96,-0.96 131.09,-26.05 174.51,-37.05 198.34,-50.26 292.16,-64.26 503.2,-131.48 67.9,-21.63 426.53,-137.85 489.61,-145.77 64.97,-8.15 128.49,20.79 128.49,93.93 0,90.87 -92.53,136.05 -155.65,170.51 -75.23,41.07 -140.01,78.75 -217.53,117.45l-443.69 226.25c-169.55,84.78 -826.32,376.11 -990.22,376.11 -122.99,0 -1009.4,-396.68 -1110.7,-396.68 -39.44,0 -372.79,155.76 -423.12,167.48l-114.58 -282.1c-13.38,-33.66 -24.67,-56.9 -39.11,-93.12l-154.84 -382.88zm-61.71 -132.22c-12.09,-51.88 -52.8,-185.12 -114.59,-185.12 -47.27,0 -105.15,32.53 -144.76,49.17l-281.38 115.3c-61.7,27.5 -111.58,27.73 -111.58,99.98 0,56.9 61.04,70.52 61.71,70.52 28.36,0 85.86,-26.73 111.59,-38.27l320.35 -129.22 493.64 1207.66 -236.66 98.32c-75.41,30.36 -204.1,63.97 -204.1,130.87 0,26.8 26.01,70.52 70.52,70.52 48.44,0 335.81,-129.34 419.29,-162.5 139.85,-55.55 140.35,-61.91 84.52,-200.27 -14.66,-36.33 -33.01,-61.18 -36.61,-104.43l370.23 -149.86c66.58,0 948.84,396.68 1110.7,396.68 112.03,0 440.41,-132.13 554.09,-177.56 346.53,-138.49 561.82,-250.74 873.83,-413.16l361.64 -193.71c247.49,-133.44 167.37,-493.75 -70.63,-493.75 -180.12,0 -307.27,72.34 -493.64,123.41 -48.36,13.25 -100.49,28.9 -148.7,45.23 -96.27,32.6 -192.08,52.86 -299.07,79.97l-310.32 68.73c-5.04,0 -41.1,-45.71 -50.52,-55.26 -19.93,-20.18 -32.88,-33.6 -56.77,-49.02 -22.72,-14.66 -41.83,-25.04 -66.26,-39.52l-908.12 -519.92c-261.37,-112.94 -420.94,0.16 -671.18,100.9l-627.22 254.29z"/>
   <path class="fil0" d="M1886.42 1383.96c0,-177.91 55.44,-406.14 132.73,-554.84l89.3 -148.71c278.72,-410.95 809.99,-621.18 1296.02,-505.97 230.62,54.67 390.89,144.68 560.19,294.87 71.3,63.25 127.65,123.69 181.97,205.89 41.88,63.38 82.54,123.31 112.32,196.21 31.01,75.92 56.35,140.34 78.18,230.34 68.85,283.79 29.24,537.3 -75.67,788.45 -42.58,101.94 -108.54,198.63 -174.96,283.43 -78.29,99.96 -225.81,223.67 -334.31,282.74 -364.87,198.63 -736.19,228.33 -1122.87,62.3 -174.9,-75.1 -319.98,-188.99 -445.32,-330.4 -24.46,-27.6 -48.91,-60.65 -68.42,-90.25 -95.13,-144.3 -150.65,-252.96 -194.01,-431.86 -17.2,-70.98 -35.14,-196.28 -35.14,-282.2zm1157.42 -1383.96l170.55 0c205.24,13.6 410.56,76.34 617.17,188.11 162.64,87.98 322.76,247.47 431.22,397.39 24.57,33.96 46.6,67.02 65.43,102.06 110.83,206.28 172.26,407.49 185.1,610.64l0 161.97c-10.58,168.46 -53.92,339.48 -129.67,516.96 -87.24,204.42 -276.2,410.33 -455.83,540.28l-205.27 120.88c-320.1,135.67 -603.16,170.96 -945.82,85.59 -317.31,-79.05 -590.79,-278.45 -780.82,-541.44 -93.98,-130.06 -167.8,-295.7 -209.56,-451.57 -43.29,-161.55 -40.96,-247.69 -40.96,-408.6 0,-443.52 302.58,-930.32 687.56,-1137.16 204.68,-109.97 407.92,-171.61 610.9,-185.1z"/>
   <path class="fil0" d="M3041.19 528.9l0 246.82 -70.52 0c-173.55,0 -334.97,146.38 -334.97,317.34l0 44.08c0,166.3 157.67,316.33 325.78,317.72 149.41,1.24 476.39,-49.35 476.39,175.92 0,69.5 -2.34,125.96 -82.88,181.57 -73.33,50.63 -219.11,38.8 -322.62,38.8 -351.44,0 -179.1,-273.26 -326.16,-273.26 -155.75,0 -54.15,414.31 264.45,414.31l70.52 0 0 246.82c0,94.62 141.04,94.62 141.04,0l0 -246.82 79.33 0c293.47,0 470.08,-409.89 174.04,-623.6 -161.3,-116.44 -410.12,-8.19 -553.6,-81.09 -108.24,-55 -153.31,-234.77 -15.04,-333.41 68.99,-49.22 282.6,-28.52 412.24,-28.52 57.77,0 120.42,64.15 141.66,105.16 22.65,43.74 11.97,56.18 23.23,100.18 23.21,90.71 143.64,77.18 143.64,-29.04 0,-167.64 -157.62,-326.16 -326.16,-326.16l-79.33 0 0 -246.82c0,-94.62 -141.04,-94.62 -141.04,0z"/>
  </g>
 </g>
</svg>
