<?xml version="1.0" encoding="UTF-8"?>
<!DOCTYPE svg PUBLIC "-//W3C//DTD SVG 1.1//EN" "http://www.w3.org/Graphics/SVG/1.1/DTD/svg11.dtd">
<!-- Creator: CorelDRAW 2021 (64-Bit) -->
<svg xmlns="http://www.w3.org/2000/svg" xml:space="preserve" width="61.1566mm" height="118.424mm" version="1.1" style="shape-rendering:geometricPrecision; text-rendering:geometricPrecision; image-rendering:optimizeQuality; fill-rule:evenodd; clip-rule:evenodd"
viewBox="0 0 397.99 770.67"
 xmlns:xlink="http://www.w3.org/1999/xlink"
 xmlns:xodm="http://www.corel.com/coreldraw/odm/2003">
 <defs>
  <style type="text/css">
   <![CDATA[
    .str1 {stroke:white;stroke-width:18.37;stroke-miterlimit:22.9256}
    .str0 {stroke:white;stroke-width:18.37;stroke-linejoin:bevel;stroke-miterlimit:22.9256}
    .fil0 {fill:none}
   ]]>
  </style>
 </defs>
 <g id="Layer_x0020_1">
  <metadata id="CorelCorpID_0Corel-Layer"/>
  <g id="_2286136804912">
   <path class="fil0 str0" d="M70.36 9.18l257.28 0c33.65,0 61.17,27.53 61.17,61.17l0 629.96c0,33.65 -27.53,61.17 -61.17,61.17l-257.28 0c-33.65,0 -61.17,-27.53 -61.17,-61.17l0 -629.96c0,-33.65 27.53,-61.17 61.17,-61.17z"/>
   <polygon class="fil0 str0" points="9.18,65.73 388.81,65.73 388.81,636.12 9.18,636.12 "/>
   <path class="fil0 str1" d="M199 669.28c14.58,0 26.4,11.82 26.4,26.4 0,14.58 -11.82,26.4 -26.4,26.4 -14.58,0 -26.4,-11.82 -26.4,-26.4 0,-14.58 11.82,-26.4 26.4,-26.4z"/>
  </g>
 </g>
</svg>
