<?xml version="1.0" encoding="UTF-8"?>
<!DOCTYPE svg PUBLIC "-//W3C//DTD SVG 1.1//EN" "http://www.w3.org/Graphics/SVG/1.1/DTD/svg11.dtd">
<!-- Creator: CorelDRAW 2021 (64-Bit) -->
<svg xmlns="http://www.w3.org/2000/svg" xml:space="preserve" width="87.8395mm" height="135.45mm" version="1.1" style="shape-rendering:geometricPrecision; text-rendering:geometricPrecision; image-rendering:optimizeQuality; fill-rule:evenodd; clip-rule:evenodd"
viewBox="0 0 1529.66 2358.76"
 xmlns:xlink="http://www.w3.org/1999/xlink"
 xmlns:xodm="http://www.corel.com/coreldraw/odm/2003">
 <defs>
  <style type="text/css">
   <![CDATA[
    .fil0 {fill:white}
   ]]>
  </style>
 </defs>
 <g id="Layer_x0020_1">
  <metadata id="CorelCorpID_0Corel-Layer"/>
  <g id="_2286304048672">
   <path class="fil0" d="M869.99 1018.14l-63.12 -52.06c-20.82,-17.62 -41.63,-42.58 -70.48,-49.3l179.67 -152.03 -34.16 186.97c-4.18,20.68 -11.47,46.66 -11.91,66.41zm-658.8 -124.39c-43.36,29.03 -101.56,78.04 -137.12,116.26 -112.02,120.41 -64.75,263.22 -61.02,408.97 0.86,33.74 -3.29,130.53 45.5,127.61 10.35,-0.62 32.86,-13.44 32.86,-26.3l-15.77 -233.01c-27.39,-183.9 48.38,-229.79 164.62,-327.61l582.23 -486.58c57.27,-48.2 123.11,-111.54 198.32,-43.44 16.2,14.66 33.45,48.12 33.45,77.12 0,67.11 -66.24,105.75 -111.21,142.17l-187.59 157.93c-16.68,13.5 -31.65,25.15 -47.9,39.63 -95.48,85.01 -90.53,54 -149.48,103.9 -25.76,21.8 -174.1,147.36 -181.08,164.9 -16.71,42.02 33.86,64.62 74.98,23.85 12.72,-12.61 16.47,-14.52 29.67,-25.62l117.67 -103.47c61.36,-61.17 101.8,-39.94 156.89,6.71l144.88 122.32c10.89,10.13 13.63,12.17 24.84,21.23 16.98,13.71 32.75,29.41 49.36,42.79 35.78,28.83 69.78,52.67 69.78,114.5 0,55.46 -38.17,77.48 -78.32,96.75 -9.53,-14.23 -15.98,-18.5 -30.3,-29.59 -13.46,-10.42 -17.96,-16.49 -32.23,-27.66l-97.29 -82.39c-12.09,-10.16 -20.45,-17.27 -32.57,-27.32 -60.89,-50.5 -143.15,-46.49 -203.24,1.68l-121.03 104.71c-22.28,17.94 -78.73,58.88 -75.72,86.97 1.88,17.51 13.97,28.91 32.26,30.82 26.65,2.78 55.8,-33.15 75.01,-49.39 44.03,-37.24 143.07,-141.44 190.27,-141.44 44.42,0 80.22,37.85 109.41,65.65l47.22 40.32c17.05,13.17 32.8,27.56 49.61,42.53l97.15 82.52c35.52,28.6 69.78,53.25 69.78,114.5 0,82.58 -96.51,124.19 -162.36,84.04 -17.9,-10.91 -25.71,-21.81 -42.99,-35.33l-127.35 -107.61c-15.25,-13.61 -27.01,-26.84 -49.3,-19.33 -18.9,6.36 -29.32,22 -43,35.61 -16.9,16.81 -31.09,29.12 -31.09,56.44 0,14.9 19.26,27.64 32.25,27.64 26.43,0 36.56,-24.32 55.28,-36.86 74.9,50.16 153.54,165.85 248.78,165.85 82.46,0 145.77,-31.6 176.5,-104.52 56.45,-133.96 -41.68,-188.68 -70.54,-231.78 27.05,-7.22 44.83,-34.21 59.06,-56.11 33.26,-51.18 35.13,-123.23 7.03,-175.84 -12.93,-24.21 -30.14,-38.83 -48.73,-57.23 -23.99,-23.73 -95.37,-85.45 -118.72,-97.81 25.31,-108.63 44.01,-221.78 66.42,-334.39 9.1,-45.72 0.81,-43.78 32.96,-68.4 11.8,-9.04 15.22,-13.34 27.68,-22.99 29.41,-22.77 50.99,-54.49 61.09,-90.94 6.12,-22.12 10.94,-70.14 0.74,-91.4 34.03,-7.93 64.69,-33.27 103.35,-25.42 37.54,7.62 62.5,35.37 62.5,76.09 0,91.1 -23.19,304.26 -32.12,405.76 -4.8,54.64 25.32,94.59 47.53,140.87 7.47,15.56 10.57,26.11 18.31,41.58 169.73,338.97 -24.51,566.58 -24.51,628.03 0,45.58 53.66,45.23 72.32,3.22 16.05,-36.14 28.19,-66.84 44.44,-102.98 64.31,-142.92 62.1,-346.57 3.78,-490.69 -12.82,-31.69 -88.3,-172.54 -88.3,-192.73 0,-37.17 1.22,-73.9 5.88,-109.3l26.37 -328.37c0,-108.67 -109.17,-166.29 -214.91,-131.98l-56.9 21.42c-11.99,-44.89 -100,-70.9 -138.79,-71.84 -88.48,-2.16 -168.57,88.84 -233.72,141.59 -11.41,9.24 -18.57,15.89 -30.25,25.03 -39.71,31.08 -76.3,70.91 -117.81,98.71 0,-61.05 -2.15,-49.98 23.03,-87.53 7.24,-10.8 41.47,-57.91 41.47,-69.1 0,-39.28 -44.47,-47.53 -64.79,-23.32l-56.01 82.2c-25.24,39.45 -17.42,100.08 -17.42,162.26 -55.52,37.17 -105.32,86.27 -157.28,128.35 -9.84,7.97 -13.87,12.15 -25.02,21.05 -13.69,10.92 -13.41,16.73 -29.61,21.06 0,-87.53 0,-175.06 -0,-262.6 -0,-115.73 12.18,-136.06 63.2,-204 20.11,-26.77 34,-52.32 53.91,-79.69 20.03,-27.51 35.61,-51.25 54.25,-79.35l54.29 -79.31c86.34,-121.04 259.38,-4.85 175.21,119.92 -17.37,25.75 -54.93,63.44 -27.84,92.21 7.15,7.6 14.47,9.08 27.77,9.08 25.32,0 30.16,-17.25 40.56,-33.15 10.85,-16.59 20.88,-29.79 31.34,-46.98 65.31,-107.43 -17.22,-265.39 -154.82,-265.39 -44.36,0 -90.39,20.28 -114.1,42.53 -14.5,13.61 -25.94,24.54 -37.1,41.21 -11.63,17.37 -21.54,33.58 -33.09,49.84 -22.07,31.08 -42.43,64.38 -65.78,95.47 -27.9,37.16 -110.61,154.79 -123.75,194.13 -23.5,70.3 -13.16,382.1 -13.16,470.57z"/>
   <path class="fil0" d="M326.37 2358.76c18.2,0 36.86,-20.92 36.86,-41.46l0 -207.31c0,-35.44 -45.56,-79.42 -75.7,-117.79 -30.44,-38.76 -57.7,-71.02 -87.52,-110.58 -129.21,-171.43 -60.69,-259.97 -136.23,-259.97 -13.72,0 -28.37,19.2 -30.04,33.23 -6.3,52.83 51.41,185.38 88.08,240.44l145.29 186.41c14.78,18.31 22.22,18.04 22.81,46.3l0.51 197.59c2.85,14.05 18.64,33.15 35.96,33.15z"/>
   <path class="fil0" d="M1141.8 2073.13l0 239.56c0,27.48 9.4,46.07 36.86,46.07 50.02,0 36.86,-64.4 36.86,-115.17 0,-51.81 -1.38,-105.36 -0.27,-156.91 1.43,-66.71 118.17,-210.43 77.51,-247.42 -48.3,-43.94 -75.19,51.23 -98.75,101.79 -10.66,22.88 -17.89,41.07 -27.83,64.31 -9.35,21.87 -24.37,39.66 -24.37,67.77z"/>
   <path class="fil0" d="M1045.06 36.86l0 138.21c0,57.5 73.71,50.97 73.71,0l0 -128.99c0,-28.35 -13.22,-42.57 -28.45,-46.07l-15.69 0c-15.7,3.44 -29.57,16.94 -29.57,36.86z"/>
   <path class="fil0" d="M1335.29 331.7c0,19.71 14.2,36.86 32.25,36.86 20.91,0 98.57,-53.91 127.09,-71.01 60.7,-36.4 30.95,-76.42 -2.7,-76.42 -18.49,0 -29.36,12.39 -43.41,21.09l-82.91 50.69c-15.82,10.07 -30.31,14.78 -30.31,38.79z"/>
   <path class="fil0" d="M1210.91 216.53c0,30.8 17.37,36.86 41.46,36.86 16.82,0 31.53,-29.75 39.54,-43.39l44.31 -80.08c42.85,-69.44 -25.64,-101.18 -56.16,-46.95 -13.69,24.33 -69.15,118.78 -69.15,133.56z"/>
  </g>
 </g>
</svg>
