<?xml version="1.0" encoding="UTF-8"?>
<!DOCTYPE svg PUBLIC "-//W3C//DTD SVG 1.1//EN" "http://www.w3.org/Graphics/SVG/1.1/DTD/svg11.dtd">
<!-- Creator: CorelDRAW 2021 (64-Bit) -->
<svg xmlns="http://www.w3.org/2000/svg" xml:space="preserve" width="98.9417mm" height="135.45mm" version="1.1" style="shape-rendering:geometricPrecision; text-rendering:geometricPrecision; image-rendering:optimizeQuality; fill-rule:evenodd; clip-rule:evenodd"
viewBox="0 0 17029.47 23313.07"
 xmlns:xlink="http://www.w3.org/1999/xlink"
 xmlns:xodm="http://www.corel.com/coreldraw/odm/2003">
 <defs>
  <style type="text/css">
   <![CDATA[
    .fil0 {fill:white}
   ]]>
  </style>
 </defs>
 <g id="Layer_x0020_1">
  <metadata id="CorelCorpID_0Corel-Layer"/>
  <g id="_2286136458112">
   <path class="fil0" d="M5099.73 3187.33l0 5873.81c0,283.22 567.12,431.12 672.32,34.85 61.08,-230.12 -41.91,-5052.66 11.94,-5770.8 76.63,-1022.01 1253.45,-1415.28 1899.34,-626.95 248.14,302.84 193.94,613.47 193.92,1126.55l0 6556.8c-0.17,631.68 -85.95,956.21 455.33,956.21 361.39,0 273.2,-709.69 273.2,-1092.8 0,-524.71 -74.11,-2266.51 103.77,-2628.23 266.69,-542.32 983.78,-752.72 1574.21,-370.22 523.96,339.45 416.56,1037.53 416.56,1632.45 0,455.32 0,910.67 0,1366 0,885.31 -80.22,1092.8 455.33,1092.8 365.02,0 273.22,-729.65 273.2,-956.21 -0.05,-424.97 0.1,-849.96 0,-1274.93 -0.12,-490.17 -30.07,-759.19 180.24,-1049.17 482.68,-665.54 1345.48,-522.29 1695.02,-52.01 555.3,747.14 -144.37,3332.33 492.48,3332.33 694.2,0 420.15,-884.25 453.9,-1640.65 40.67,-911.56 1227.48,-1265.86 1810.92,-624.2 159.59,175.51 285.04,486.18 285.04,807.78l0 5919.34c0,3086.04 -910.67,3965.73 -910.67,4826.53l0 2322.19c0,179.43 127.57,322.79 276.09,364.27l171.01 0c150.53,-45.01 281.55,-219.05 283.56,-589.79l-3.25 -2006.74c-2.84,-440.17 73.84,-496.93 188.54,-813.18 358.71,-988.93 677.72,-2198.99 677.72,-3329.23l0 -6921.07c0,-626.47 -472.34,-1234.95 -1033.09,-1471.25 -775.44,-326.78 -1184.42,-124.11 -1789.97,196.32 -48.07,-577.62 -543.54,-1147.33 -1098.27,-1360.54 -821.46,-315.73 -1309.34,-10.86 -1861.4,358.81 -148.98,-639.52 -1200.68,-1300.41 -2180.88,-951.49 -162.62,57.88 -314.2,184.01 -460.05,222.96 0,-1093.35 0.53,-2186.7 1.62,-3280.02 0.5,-512.29 -199.81,-916.76 -445.47,-1193.73 -674.04,-759.93 -1811.83,-788.43 -2556.94,-75.18 -273.32,261.63 -505.26,700.77 -505.26,1088.39z"/>
   <path class="fil0" d="M5099.73 13022.54l-1035.71 -1104.37c-239.9,-236.35 -833.52,-938.53 -1064.3,-1121.3 -175.09,-138.69 -233.3,-182.13 -449.52,-279.02 -1096.43,-491.31 -2550.21,331.41 -2550.21,1548.5 0,809.03 127.64,897.21 555.47,1539.05l1129.25 1648.27c380.74,571.43 2443,3604.03 2651.42,3814.32 345.99,349.12 570.81,587.42 1010.43,856.45 734.37,449.41 827.97,338.47 1301.3,565.57 0,516.04 0,1032.09 0,1548.13 0,653.78 -149.95,1274.93 364.27,1274.93 276.56,0 364.27,-229.83 364.27,-500.86 0,-3279.35 192.01,-2707.9 -982.78,-3160.76 -1399.32,-539.4 -1960.54,-1595.04 -2796.49,-2849.64l-2659.9 -3896.9c-240.14,-362.46 -340.29,-710.62 -150.38,-1144.52 249.21,-569.46 949.77,-906.23 1625.48,-512.72 171.31,99.78 632.79,588.07 786.04,762.1 85.51,97.11 91.08,129.69 181.91,227.88l958.81 1044.66c180.81,216.3 603.89,696.43 897.24,696.43 267.47,0 546.4,-237.64 546.4,-500.88l0 -3096.27c0,-250.33 -686.02,-565.16 -685.62,179.52l2.63 2461.42z"/>
   <path class="fil0" d="M3050.73 3733.73c0,668.91 85.06,1118.46 362.96,1686.05 297.04,606.68 729.84,217.95 729.84,-1.31 0,-110.34 -983.11,-1896.67 226.97,-3461.24 1695.48,-2192.18 4002.48,-851.32 4116.19,-835.62 154.53,21.33 392.3,-102.5 392.3,-347.54 0,-513.97 -1382.42,-774.08 -1821.33,-774.08 -792.27,0 -1144.16,30.15 -1858.56,372.58 -191.82,91.94 -383.58,204.42 -573.97,336.68 -274.25,190.52 -487.19,408.74 -698.84,667.17 -75.4,92.08 -130.02,161.26 -199.88,255.45 -383.49,517.14 -675.68,1358.27 -675.68,2101.85z"/>
   <path class="fil0" d="M11519.93 1411.54c0,175.77 224.96,666.52 319.02,1001.44 233.29,830.63 267.57,1949.75 5.78,2783.89 -211.27,673.28 -656.21,1314.4 85.01,1314.4 444.49,0 1136.79,-2432.05 608.33,-4251.01 -109.9,-378.23 -425.51,-1551.2 -928.36,-1077.69 -67.3,63.36 -89.78,98.81 -89.78,228.97z"/>
   <path class="fil0" d="M1001.73 3460.53c0,1076.04 16.25,1629.87 453.73,2642.52 134.99,312.48 127.74,408.23 502.46,408.23 128.66,0 273.2,-189.91 273.2,-318.74 0,-143.87 -139.76,-401.84 -195.51,-533.03 -891.03,-2096.67 195.51,-4131.05 195.51,-4202.44 0,-220.26 -144.01,-364.27 -364.27,-364.27 -264.85,0 -307.66,187.71 -395.02,379.03 -252.61,553.23 -470.1,1340.29 -470.1,1988.7z"/>
   <path class="fil0" d="M9288.8 1639.2c0,520.72 1065.5,1344.26 563.54,3022.34 -99.38,332.22 -244.82,491.67 -244.82,802.46 0,128.62 511.68,836.47 937.81,-655.87 68.67,-240.5 92.29,-387.45 111.24,-663.09 45.92,-667.45 -33.91,-1339 -319.76,-1914.67 -112.37,-226.32 -399.69,-864.37 -683.75,-864.37 -166.4,0 -364.27,125.66 -364.27,273.2z"/>
  </g>
 </g>
</svg>
