<?xml version="1.0" encoding="UTF-8"?>
<!DOCTYPE svg PUBLIC "-//W3C//DTD SVG 1.1//EN" "http://www.w3.org/Graphics/SVG/1.1/DTD/svg11.dtd">
<!-- Creator: CorelDRAW 2021 (64-Bit) -->
<svg xmlns="http://www.w3.org/2000/svg" xml:space="preserve" width="182.445mm" height="210.003mm" version="1.1" style="shape-rendering:geometricPrecision; text-rendering:geometricPrecision; image-rendering:optimizeQuality; fill-rule:evenodd; clip-rule:evenodd"
viewBox="0 0 4631.94 5331.57"
 xmlns:xlink="http://www.w3.org/1999/xlink"
 xmlns:xodm="http://www.corel.com/coreldraw/odm/2003">
 <defs>
  <style type="text/css">
   <![CDATA[
    .fil0 {fill:white;fill-rule:nonzero}
   ]]>
  </style>
 </defs>
 <g id="Layer_x0020_1">
  <metadata id="CorelCorpID_0Corel-Layer"/>
  <g id="_2207916041056">
   <path class="fil0" d="M2432.7 4.44c291.01,-4.44 579.8,-2.22 868.59,-4.44 17.77,339.88 139.95,686.43 388.76,926.35 248.8,246.58 599.79,359.88 941.9,397.64l0 895.25c-319.89,-11.11 -642,-77.75 -933.01,-215.48 -126.62,-57.76 -244.36,-131.07 -359.88,-206.6 -2.22,648.67 2.22,1297.33 -4.44,1943.77 -17.77,311 -119.96,619.79 -299.9,875.26 -291.01,426.52 -795.28,704.2 -1312.88,713.09 -317.67,17.77 -635.34,-68.87 -906.36,-228.81 -448.73,-264.35 -764.18,-748.63 -810.83,-1268.45 -4.44,-111.07 -6.66,-222.15 -2.22,-331 39.99,-422.08 248.8,-826.38 573.14,-1101.84 368.76,-319.89 884.14,-473.17 1366.2,-382.09 4.44,328.78 -8.89,657.55 -8.89,986.33 -219.92,-71.09 -477.61,-51.09 -670.88,82.19 -139.95,91.08 -246.58,231.03 -302.12,388.76 -46.65,113.29 -33.32,237.7 -31.1,357.65 53.32,364.32 404.31,670.88 777.51,637.56 248.8,-2.22 486.5,-146.62 615.34,-357.65 42.21,-73.31 88.86,-148.84 91.08,-235.47 22.21,-397.64 13.33,-793.06 15.55,-1190.7 2.22,-895.25 -2.22,-1788.27 4.44,-2681.3z"/>
  </g>
 </g>
</svg>
