<?xml version="1.0" encoding="UTF-8"?>
<!DOCTYPE svg PUBLIC "-//W3C//DTD SVG 1.1//EN" "http://www.w3.org/Graphics/SVG/1.1/DTD/svg11.dtd">
<!-- Creator: CorelDRAW 2021 (64-Bit) -->
<svg xmlns="http://www.w3.org/2000/svg" xml:space="preserve" width="131.427mm" height="131.461mm" version="1.1" style="shape-rendering:geometricPrecision; text-rendering:geometricPrecision; image-rendering:optimizeQuality; fill-rule:evenodd; clip-rule:evenodd"
viewBox="0 0 1922.55 1923.06"
 xmlns:xlink="http://www.w3.org/1999/xlink"
 xmlns:xodm="http://www.corel.com/coreldraw/odm/2003">
 <defs>
  <style type="text/css">
   <![CDATA[
    .fil0 {fill:white}
   ]]>
  </style>
 </defs>
 <g id="Layer_x0020_1">
  <metadata id="CorelCorpID_0Corel-Layer"/>
  <g id="_2286136409344">
   <path class="fil0" d="M1346.73 1517.01l169.32 -171.23c14.93,10.2 305.22,299.85 317.66,318.92 64.99,99.65 -19.5,192.86 -96.11,192.86 -56.41,0 -87.96,-35.72 -117.07,-64.82 -36.02,-36.02 -261.57,-257.47 -273.8,-275.73zm61.92 -154.8l-45.51 47.37c-17.47,-11.95 -97.81,-95.87 -123.8,-121.86 -62.44,-62.45 -41.88,-39.06 -123.46,2.32 -201.92,102.41 -407.12,97.33 -597.33,-28.42 -13.53,-8.95 -26.89,-19.05 -39.54,-30.12 -39.28,-34.34 -70.14,-64.26 -99.77,-109.2 -61.26,-92.92 -100.6,-193.06 -100.6,-317.35 0,-109.55 31.38,-193.29 73.47,-274.82 30.57,-59.23 77.67,-107.82 126.86,-151.77 89.83,-80.28 236.12,-130.67 356.94,-130.67 141.52,0 292.53,61.65 391.85,161.55 74.36,74.79 123.47,165.47 149.2,268.75 40.83,163.92 -2.66,355.16 -108.88,481.75 -34.11,40.66 -10.74,49.24 33.18,93.16l107.39 109.32zm-1191.94 -584.36c0,112.64 10.24,195.59 58.03,290.26 54.26,107.47 104.88,169.83 202.31,242.73 30.14,22.55 58.01,36.27 93.1,53.96 140.81,70.98 322.13,77.36 473.36,27.01 54.93,-18.29 97.98,-43.66 144.55,-68.3l128.63 130.65c-12.86,18.75 -47.37,37.9 -47.37,62.84 0,23.2 82.06,95.61 101.58,115.13 48.26,48.26 233.64,242.58 277.73,267.93 88.25,50.75 205.87,15.29 255.45,-84.98 25.46,-51.48 24.15,-110.57 -1.3,-161.43 -23.44,-46.83 -264.21,-276.3 -322.9,-334.99 -13.75,-13.75 -40.82,-49.34 -62.89,-49.34 -24.94,0 -44.09,34.5 -61.92,46.44l-128.66 -126.75c8.49,-12.21 16.58,-22.48 24.96,-35 8.58,-12.82 15.92,-24.31 23.68,-38.24 95.72,-171.93 110.64,-398.45 21.99,-574.01 -37.09,-73.46 -63.67,-115.88 -122.89,-175.1 -102.02,-102.02 -258.92,-180.92 -411.18,-180.92 -112.64,0 -195.59,10.24 -290.26,58.03 -76.49,38.62 -157.29,92.16 -210.65,160.86 -11.78,15.16 -20.63,26.15 -32.08,41.45 -22.55,30.14 -36.27,58.01 -53.96,93.1 -29.07,57.66 -59.33,154.02 -59.33,238.65z"/>
   <path class="fil0" d="M835.9 1238.38c-137.59,0 -278.27,-73.19 -355.34,-186.45 -89.5,-131.54 -99.06,-276.02 -38.9,-424.5 59.77,-147.5 227.98,-255.91 394.24,-255.91 90.02,0 179.41,32.12 246.98,78.09 140.91,95.88 216.09,283.56 174.13,451.37 -8.07,32.27 -15,52.05 -26.87,81.49 -21.28,52.8 -74.1,118.1 -116.73,154.17 -73.6,62.26 -180.74,101.74 -277.51,101.74zm-495.35 -456.65c0,101.73 6.53,145.81 46.49,236.02 42.38,95.69 140.37,193.68 236.07,236.07 195.12,86.42 413.25,53.11 564.01,-97.65 34.09,-34.09 77.33,-92.53 97.65,-138.41 86.42,-195.12 53.11,-413.25 -97.65,-564.01 -79.56,-79.56 -206.84,-144.14 -327.99,-144.14 -101.73,0 -145.81,6.53 -236.02,46.49 -45.58,20.19 -104.64,63.7 -138.41,97.66 -79.63,80.09 -144.14,206.19 -144.14,327.99z"/>
   <path class="fil0" d="M773.99 808.82c-1.77,-11.44 10.52,-38.91 16.36,-45.55 31.2,-35.46 102.53,-20.13 106.53,38.55 5.08,74.51 -109.92,90.85 -122.9,7zm112.23 -119.97c18.7,0.42 51.59,11.64 66.97,18.17 36.04,15.28 141.82,89.51 161.35,94.06l0 7.74c-15.09,3.52 -91.05,53.95 -106.72,63.55 -31.89,19.54 -79.89,47.74 -121.6,48.67 0.69,-0.6 1.87,-2.35 2.21,-1.66 0.33,0.69 1.75,-1.33 2.22,-1.65 4.39,-3 2.9,-2 7,-4.61 4.21,-2.67 9.06,-5.31 14.13,-9.09 63.2,-47.06 64.96,-146.89 2.2,-196.51l-21.06 -13.77c-6.08,-4.1 -2.6,-1.34 -6.7,-4.91zm-174.15 104.49c0,44.53 8.57,79.62 45.77,109.03 3.64,2.88 9.17,6.32 13.93,9.29l13.83 9.39c-52.76,-1.17 -130.59,-52.47 -174.15,-81.27 -11.29,-7.46 -42.47,-28.23 -54.18,-30.96l0 -7.74c12.98,-3.02 17.77,-8.1 27.86,-14.71l133.5 -79.35c15.38,-6.52 48.28,-17.75 66.97,-18.17 -13.18,11.46 -73.53,39.58 -73.53,104.49zm-247.68 11.61c0,23.56 10.09,24.22 34.08,39.45 90.92,57.74 209.92,146.31 318.09,146.31 111.19,0 147.2,-14.96 235.31,-70.41 28.62,-18.01 54.47,-33.92 83.66,-51.79 42,-25.72 114.88,-56.73 42.61,-100.06 -15.28,-9.16 -27.73,-17.17 -42.67,-26.99 -29.45,-19.35 -56.71,-34.48 -85.95,-53.36 -143.25,-92.47 -283.81,-92.57 -427.21,0 -13.87,8.96 -26.18,16.7 -40.58,25.21 -16.4,9.69 -26.35,17.48 -42.56,27.1 -34.02,20.21 -74.78,37.9 -74.78,64.54z"/>
   <path class="fil0" d="M-0 1578.93c0,18.72 12.24,30.96 30.96,30.96l557.27 0 0 -61.92 -526.31 0 0 -526.31 -61.92 0 0 557.27z"/>
   <path class="fil0" d="M-0 30.96l0 557.27 61.92 0 0 -526.31 526.31 0 0 -61.92 -557.27 0c-18.72,0 -30.96,12.24 -30.96,30.96z"/>
   <path class="fil0" d="M1021.66 61.92l526.31 0 0 526.31 61.92 0 0 -557.27c0,-18.72 -12.24,-30.96 -30.96,-30.96l-557.27 0 0 61.92z"/>
  </g>
 </g>
</svg>
